Coordinates
version=1
nRows=50
nColumns=24
inDegrees=yes

Units are S.I. units (second, meters, Newtons, ...)
If the header above contains a line with 'inDegrees', this indicates whether rotational values are in degrees (yes) or radians (no).

endheader
time	pelvis_tilt	pelvis_list	pelvis_rotation	pelvis_tx	pelvis_ty	pelvis_tz	hip_flexion_r	hip_adduction_r	hip_rotation_r	knee_angle_r	ankle_angle_r	subtalar_angle_r	mtp_angle_r	hip_flexion_l	hip_adduction_l	hip_rotation_l	knee_angle_l	ankle_angle_l	subtalar_angle_l	mtp_angle_l	lumbar_extension	lumbar_bending	lumbar_rotation
4.400000	10.646326	1.992934	-182.490951	0.246927	0.848496	-1.212880	19.350728	-10.438964	-31.612822	-12.505085	-1.229951	13.434347	0.000000	20.395073	-17.377910	-29.539871	-16.751395	0.686336	8.928305	0.000000	2.623718	3.023314	1.308096
4.405000	10.574150	2.037622	-182.525160	0.246787	0.848623	-1.213019	19.244747	-10.366011	-31.609830	-12.455990	-1.224436	13.463495	0.000000	20.286008	-17.436448	-29.565704	-16.735145	0.710932	8.944401	0.000000	2.595271	3.046960	1.355565
4.410000	10.569292	2.048054	-182.533273	0.246664	0.848654	-1.213004	19.225371	-10.350761	-31.616056	-12.443337	-1.220778	13.464781	0.000000	20.254804	-17.441333	-29.581296	-16.696561	0.715801	8.945255	0.000000	2.639045	3.048617	1.353330
4.415000	10.521029	2.076152	-182.579952	0.246536	0.848725	-1.212997	19.171281	-10.309188	-31.596014	-12.436819	-1.217977	13.478734	0.000000	20.166622	-17.477900	-29.626507	-16.679369	0.714307	8.945785	0.000000	2.634387	3.086973	1.380729
4.420000	10.515211	2.078037	-182.589732	0.246411	0.848763	-1.212965	19.156640	-10.308036	-31.594932	-12.437930	-1.217903	13.479181	0.000000	20.143857	-17.474861	-29.628233	-16.694748	0.713643	8.943611	0.000000	2.674090	3.082209	1.374622
4.425000	10.472074	2.059692	-182.600991	0.246311	0.848746	-1.212971	19.092177	-10.314126	-31.557542	-12.399783	-1.210364	13.500664	0.000000	20.075709	-17.457369	-29.652554	-16.678134	0.797350	8.965194	0.000000	2.678522	3.052605	1.346465
4.430000	10.452185	2.040071	-182.599675	0.246207	0.848740	-1.212963	19.053784	-10.332263	-31.544032	-12.378309	-1.203571	13.506411	0.000000	20.048137	-17.437082	-29.696067	-16.700434	0.782545	8.957953	0.000000	2.708124	3.026766	1.332765
4.435000	10.409165	2.018607	-182.616712	0.246077	0.848798	-1.212943	19.018896	-10.359722	-31.520998	-12.405013	-1.175890	13.502317	0.000000	19.966112	-17.412448	-29.733174	-16.663475	0.777377	8.975499	0.000000	2.709890	3.000091	1.347406
4.440000	10.385817	2.018165	-182.659057	0.245971	0.848843	-1.212882	19.013785	-10.363748	-31.496362	-12.437587	-1.171405	13.509229	0.000000	19.914611	-17.421492	-29.791860	-16.658277	0.762262	8.961637	0.000000	2.729215	3.014252	1.388590
4.445000	10.375082	2.020249	-182.667941	0.245859	0.848877	-1.212825	19.004803	-10.366322	-31.495659	-12.449548	-1.173084	13.507423	0.000000	19.896281	-17.423135	-29.791973	-16.666627	0.762230	8.960909	0.000000	2.762841	3.017553	1.383072
4.450000	10.363957	2.022343	-182.673740	0.245772	0.848887	-1.212838	18.995121	-10.367365	-31.492154	-12.461317	-1.174183	13.506192	0.000000	19.878191	-17.428926	-29.791813	-16.672057	0.764238	8.960246	0.000000	2.794767	3.010804	1.375419
4.455000	10.363073	1.932349	-182.653287	0.245735	0.848843	-1.212677	19.018863	-10.485676	-31.434602	-12.509079	-1.153774	13.463960	0.000000	19.866955	-17.311051	-29.800328	-16.663065	0.846319	8.972512	0.000000	2.827696	2.906541	1.339956
4.460000	10.285660	1.987060	-182.674972	0.245589	0.848901	-1.212860	18.919620	-10.404865	-31.398321	-12.488196	-1.131274	13.447733	0.000000	19.776884	-17.388358	-29.826295	-16.667128	0.902639	8.980943	0.000000	2.791973	2.940392	1.345361
4.465000	10.316993	1.933590	-182.679341	0.245580	0.848846	-1.212671	18.989674	-10.486917	-31.384361	-12.550830	-1.125659	13.397113	0.000000	19.826377	-17.329480	-29.828608	-16.725860	0.910562	8.973579	0.000000	2.860558	2.901684	1.352431
4.470000	10.305582	1.933789	-182.693064	0.245484	0.848858	-1.212604	18.981642	-10.490945	-31.381238	-12.559742	-1.124559	13.396184	0.000000	19.810526	-17.331861	-29.824120	-16.737568	0.906816	8.972513	0.000000	2.891777	2.911865	1.350934
4.475000	10.281808	1.946044	-182.720496	0.245443	0.848878	-1.212597	18.979803	-10.483447	-31.361637	-12.609757	-1.111603	13.392501	0.000000	19.793082	-17.358677	-29.816648	-16.784501	0.903005	8.946137	0.000000	2.895989	2.925979	1.382994
4.480000	10.265127	1.945030	-182.734932	0.245386	0.848886	-1.212612	18.956137	-10.477284	-31.347308	-12.599082	-1.088846	13.388501	0.000000	19.781401	-17.368485	-29.811385	-16.818603	0.924395	8.904992	0.000000	2.913658	2.926152	1.385688
4.485000	10.243281	1.952538	-182.727371	0.245316	0.848869	-1.212628	18.923262	-10.468644	-31.318601	-12.598011	-1.087643	13.388355	0.000000	19.762805	-17.374134	-29.756488	-16.818736	0.970365	8.899392	0.000000	2.925509	2.921508	1.355896
4.490000	10.210978	1.963676	-182.712111	0.245238	0.848872	-1.212638	18.870195	-10.454354	-31.311076	-12.580627	-1.072684	13.358652	0.000000	19.748131	-17.382994	-29.698074	-16.851885	1.002546	8.853065	0.000000	2.923849	2.917534	1.324539
4.495000	10.199792	1.968515	-182.711339	0.245138	0.848919	-1.212620	18.851933	-10.450856	-31.304856	-12.581235	-1.064164	13.356299	0.000000	19.749077	-17.392604	-29.697599	-16.903969	0.998888	8.826305	0.000000	2.944683	2.911109	1.315743
4.500000	10.189373	1.970782	-182.723086	0.245070	0.848932	-1.212597	18.844049	-10.451226	-31.306000	-12.590066	-1.061743	13.353828	0.000000	19.738589	-17.396771	-29.693342	-16.912900	0.998264	8.822826	0.000000	2.969845	2.916093	1.313140
4.505000	10.160133	2.025714	-182.719536	0.245026	0.848946	-1.212625	18.800514	-10.392084	-31.304478	-12.585678	-1.030982	13.342945	0.000000	19.737307	-17.445661	-29.548200	-16.954438	1.016238	8.625846	0.000000	2.964869	2.968715	1.302846
4.510000	10.141477	2.012181	-182.715050	0.245016	0.848886	-1.212608	18.786754	-10.416005	-31.300272	-12.601516	-1.035823	13.334429	0.000000	19.726624	-17.431635	-29.530134	-16.967558	1.081980	8.624989	0.000000	2.979737	2.960561	1.291062
4.515000	10.123496	2.005695	-182.705644	0.244981	0.848865	-1.212601	18.764724	-10.428549	-31.296822	-12.606474	-1.036134	13.333703	0.000000	19.725300	-17.430542	-29.521792	-17.007596	1.080861	8.619964	0.000000	2.995067	2.949845	1.284531
4.520000	10.112204	2.006750	-182.712216	0.244924	0.848874	-1.212554	18.755990	-10.432515	-31.294816	-12.615266	-1.036413	13.333145	0.000000	19.717104	-17.430703	-29.518378	-17.017170	1.080421	8.618582	0.000000	3.017485	2.957010	1.280772
4.525000	10.064235	2.073836	-182.720075	0.244796	0.848919	-1.212630	18.690817	-10.356175	-31.312109	-12.614146	-0.994614	13.329529	0.000000	19.674793	-17.498735	-29.466630	-17.026324	1.059382	8.492844	0.000000	2.999164	3.009553	1.304672
4.530000	10.053750	2.074259	-182.724730	0.244792	0.848926	-1.212559	18.685386	-10.362877	-31.309944	-12.621125	-0.996195	13.328840	0.000000	19.668331	-17.497801	-29.461358	-17.035434	1.060006	8.490755	0.000000	3.014667	3.013309	1.302965
4.535000	10.019396	2.071904	-182.695452	0.244694	0.848978	-1.212634	18.622568	-10.361946	-31.312260	-12.594751	-0.992555	13.320633	0.000000	19.642272	-17.498130	-29.405164	-17.069969	1.124736	8.494046	0.000000	3.009334	2.970998	1.257721
4.540000	9.998696	2.064218	-182.680276	0.244666	0.848995	-1.212644	18.588113	-10.370155	-31.315300	-12.579435	-1.001508	13.316217	0.000000	19.627037	-17.486386	-29.382831	-17.082109	1.148047	8.503312	0.000000	3.016730	2.950189	1.231825
4.545000	9.974376	2.059029	-182.655243	0.244631	0.849016	-1.212647	18.552778	-10.381967	-31.338312	-12.575419	-0.984213	13.296007	0.000000	19.611345	-17.475459	-29.368330	-17.091645	1.159593	8.515725	0.000000	3.025150	2.933358	1.205839
4.550000	9.967028	2.061274	-182.658380	0.244655	0.849026	-1.212536	18.550326	-10.388183	-31.336735	-12.581681	-0.984746	13.295418	0.000000	19.606295	-17.469409	-29.367477	-17.092728	1.158976	8.515798	0.000000	3.036193	2.947864	1.209500
4.555000	9.956692	2.078095	-182.688636	0.244641	0.849036	-1.212496	18.569589	-10.380185	-31.343432	-12.643302	-0.985459	13.290001	0.000000	19.572413	-17.474727	-29.363510	-17.051930	1.152507	8.496082	0.000000	3.047452	2.977062	1.243976
4.560000	9.931365	2.077415	-182.721067	0.244560	0.849062	-1.212536	18.543704	-10.372252	-31.319280	-12.642288	-0.966916	13.335331	0.000000	19.524168	-17.477444	-29.378902	-17.057366	1.103004	8.365012	0.000000	3.052899	2.967883	1.286139
4.565000	9.917650	2.065507	-182.698228	0.244581	0.849000	-1.212547	18.518641	-10.385282	-31.309720	-12.626424	-0.966848	13.341557	0.000000	19.516125	-17.463857	-29.330824	-17.055101	1.151626	8.389930	0.000000	3.063511	2.944617	1.241376
4.570000	9.909279	2.066641	-182.693896	0.244617	0.848979	-1.212543	18.513936	-10.387784	-31.306039	-12.631791	-0.968805	13.341922	0.000000	19.511602	-17.462485	-29.328277	-17.056933	1.157078	8.390980	0.000000	3.074652	2.939751	1.235411
4.575000	9.892359	2.060860	-182.692249	0.244627	0.849033	-1.212521	18.508597	-10.400185	-31.295549	-12.653170	-0.976599	13.337588	0.000000	19.500832	-17.452057	-29.316626	-17.085804	1.167899	8.386072	0.000000	3.069788	2.930789	1.210398
4.580000	9.886691	2.077217	-182.701596	0.244605	0.849055	-1.212483	18.514223	-10.387958	-31.296331	-12.677522	-0.962766	13.329839	0.000000	19.477261	-17.460539	-29.310514	-17.031543	1.179731	8.383398	0.000000	3.081867	2.947642	1.212624
4.585000	9.878393	2.079664	-182.708669	0.244594	0.849064	-1.212461	18.510146	-10.387287	-31.295600	-12.683898	-0.961251	13.328314	0.000000	19.469433	-17.455564	-29.309649	-17.042298	1.175250	8.378922	0.000000	3.094979	2.951883	1.211278
4.590000	9.874168	2.081836	-182.711094	0.244557	0.849073	-1.212546	18.504158	-10.380139	-31.292749	-12.689926	-0.961477	13.328489	0.000000	19.456696	-17.467055	-29.307775	-17.048897	1.174121	8.375781	0.000000	3.111915	2.931789	1.203222
4.595000	9.830237	2.075546	-182.710225	0.244566	0.849058	-1.212550	18.454794	-10.383271	-31.235299	-12.683621	-0.928549	13.320349	0.000000	19.416514	-17.462918	-29.297353	-17.071691	1.208161	8.340182	0.000000	3.078300	2.919946	1.178028
4.600000	9.825830	2.078038	-182.712777	0.244544	0.849078	-1.212534	18.453175	-10.381892	-31.233756	-12.689964	-0.931600	13.319377	0.000000	19.410530	-17.462235	-29.295754	-17.073775	1.208062	8.339767	0.000000	3.087443	2.916776	1.178193
4.605000	9.816170	2.091131	-182.735750	0.244575	0.849075	-1.212484	18.478063	-10.381376	-31.224743	-12.751053	-0.937121	13.305110	0.000000	19.396821	-17.466464	-29.289135	-17.055765	1.213316	8.317891	0.000000	3.078830	2.934181	1.210043
4.610000	9.804996	2.091483	-182.751937	0.244621	0.849083	-1.212455	18.493758	-10.390618	-31.216251	-12.798321	-0.906374	13.286389	0.000000	19.395636	-17.472249	-29.278427	-17.083777	1.213608	8.290410	0.000000	3.074291	2.935925	1.246113
4.615000	9.800439	2.078519	-182.766850	0.244673	0.849066	-1.212442	18.512107	-10.405277	-31.152012	-12.832116	-0.860809	13.275341	0.000000	19.392871	-17.458909	-29.252409	-17.079223	1.246713	8.233379	0.000000	3.077528	2.920008	1.271920
4.620000	9.784746	2.066767	-182.748569	0.244759	0.849105	-1.212489	18.506471	-10.421703	-31.127066	-12.850779	-0.876044	13.272921	0.000000	19.408104	-17.459321	-29.226213	-17.149128	1.236397	8.237089	0.000000	3.059426	2.885316	1.246920
4.625000	9.767973	2.053174	-182.723777	0.244832	0.849085	-1.212465	18.503572	-10.448716	-31.095432	-12.882409	-0.874445	13.237631	0.000000	19.423668	-17.445797	-29.187921	-17.199215	1.297368	8.237907	0.000000	3.039703	2.855847	1.204735
4.630000	9.731334	2.079621	-182.743096	0.244894	0.849129	-1.212523	18.503810	-10.429559	-31.067412	-12.950682	-0.876755	13.229539	0.000000	19.404289	-17.490019	-29.155139	-17.241448	1.288575	8.239820	0.000000	2.994597	2.874576	1.224518
4.635000	9.696695	2.114063	-182.767310	0.244947	0.849129	-1.212501	18.504991	-10.403375	-31.035574	-13.019140	-0.808191	13.186786	0.000000	19.388401	-17.541621	-29.153772	-17.292060	1.310693	8.197411	0.000000	2.951112	2.918549	1.273231
4.640000	9.674107	2.125419	-182.780882	0.245027	0.849070	-1.212438	18.532908	-10.411413	-30.991584	-13.114485	-0.767945	13.136187	0.000000	19.389231	-17.552474	-29.117431	-17.313642	1.352569	8.161038	0.000000	2.919087	2.930130	1.323291
4.645000	9.656599	2.094130	-182.760162	0.245148	0.849036	-1.212420	18.553685	-10.462953	-30.923902	-13.183044	-0.726551	13.089996	0.000000	19.421204	-17.535970	-29.065138	-17.408081	1.401399	8.166616	0.000000	2.885817	2.885084	1.280924
